<?xml version="1.0" ?><!DOCTYPE svg  PUBLIC '-//W3C//DTD SVG 1.1//EN'  'http://www.w3.org/Graphics/SVG/1.1/DTD/svg11.dtd'><svg enable-background="new 0 0 64 64" id="Layer_1" version="1.1" viewBox="0 0 64 64" xml:space="preserve" xmlns="http://www.w3.org/2000/svg" xmlns:xlink="http://www.w3.org/1999/xlink"><g><rect fill="#27A2DB" height="64" width="64"/><rect fill="#2D93BA" height="8" width="64" y="56"/></g><g><path d="M43.7,18.2h-5.4v-2.9c0-0.4-0.3-0.7-0.7-0.7H26.5c-0.4,0-0.7,0.3-0.7,0.7v2.9h-5.4c-1,0-1.8,0.8-1.8,1.8   v3.8h27V20C45.5,19,44.7,18.2,43.7,18.2z M36.7,18.2h-9.4V16h9.4V18.2z" fill="#FFFFFF"/><path d="M22.2,49.5h19.6l1.7-24.2h-23L22.2,49.5z M36.2,30.8c0-0.4,0.3-0.7,0.7-0.7s0.7,0.3,0.7,0.7V44   c0,0.4-0.3,0.7-0.7,0.7s-0.7-0.3-0.7-0.7V30.8z M31.3,30.8c0-0.4,0.3-0.7,0.7-0.7s0.7,0.3,0.7,0.7V44c0,0.4-0.3,0.7-0.7,0.7   s-0.7-0.3-0.7-0.7V30.8z M26.3,30.8c0-0.4,0.3-0.7,0.7-0.7c0.4,0,0.7,0.3,0.7,0.7V44c0,0.4-0.3,0.7-0.7,0.7c-0.4,0-0.7-0.3-0.7-0.7   V30.8z" fill="#FFFFFF"/></g></svg>