<?xml version="1.0" ?><!DOCTYPE svg  PUBLIC '-//W3C//DTD SVG 1.1//EN'  'http://www.w3.org/Graphics/SVG/1.1/DTD/svg11.dtd'><svg enable-background="new 0 0 64 64" id="Layer_1" version="1.1" viewBox="0 0 64 64" xml:space="preserve" xmlns="http://www.w3.org/2000/svg" xmlns:xlink="http://www.w3.org/1999/xlink"><g><rect fill="#44C4A1" height="64" width="64"/><rect fill="#3EA69B" height="8" width="64" y="56"/></g><g><path d="M32.2,46.7c-6.5,0.1-12.4-4.3-14.3-10.5c-1.5-5.2,0-10.7,3.6-14.5l-0.2,1.7c-0.1,0.8,0.4,1.5,1.2,1.6   c0.1,0,0.1,0,0.2,0c0.7,0,1.3-0.5,1.4-1.2l0.7-5.2c0.1-0.4,0-0.7-0.3-1C24.3,17.2,24,17,23.6,17l-5.2-0.7c-0.8-0.1-1.5,0.4-1.6,1.2   c-0.1,0.8,0.4,1.5,1.2,1.6l2,0.3c-4.7,4.5-6.6,11.3-4.8,17.6c2.2,7.4,9.1,12.5,16.8,12.5c0.1,0,0.1,0,0.2,0c0.8,0,1.4-0.6,1.4-1.4   S33,46.7,32.2,46.7z" fill="#FFFFFF"/><path d="M46,45l-2-0.3c4.7-4.5,6.7-11.3,4.8-17.7c-2.2-7.5-9.2-12.6-17-12.5c-0.8,0-1.4,0.6-1.4,1.4   c0,0.8,0.6,1.4,1.4,1.4c6.5-0.1,12.4,4.2,14.3,10.5c1.5,5.2,0,10.7-3.6,14.4l0.2-1.6c0.1-0.8-0.4-1.5-1.2-1.6   c-0.8-0.1-1.5,0.4-1.6,1.2l-0.7,5.2c-0.1,0.8,0.4,1.5,1.2,1.6l5.2,0.7c0.1,0,0.1,0,0.2,0c0.7,0,1.3-0.5,1.4-1.2   C47.3,45.8,46.8,45.1,46,45z" fill="#FFFFFF"/></g></svg>